# xmcd
#
# Track frame offsets:
#	150
#	13520
#	30553
#	46358
#	58917
#	69871
#	82644
#	93743
#	107728
#	119054
#	130590
#	143638
#	154389
#	164396
#	182221
#	194296
#	205235
#	219921
#	235653
#	248372
#	267643
#	280597
#	293237
#	303164
#	316602
#	331966
#
# Disc length: 4625 seconds
#
# Revision: 1
# Processed by: cddbd v1.5.2PL0 Copyright (c) Steve Scherf et al.
# Submitted via: EZCDAudioConverter 8.0.5.1
#
DISCID=68120f1a
DTITLE=Roy Orbison - The Ultimate Collection
DYEAR=2016
DGENRE=Country
TTITLE0=Roy Orbison - Oh, Pretty Woman
TTITLE1=Roy Orbison - I Drove All Night
TTITLE2=Roy Orbison - You Got It
TTITLE3=Roy Orbison - Crying
TTITLE4=Roy Orbison - Only The Lonely (Know The Way I Feel)
TTITLE5=Roy Orbison - In Dreams
TTITLE6=Roy Orbison - Love Hurts
TTITLE7=Roy Orbison - Claudette
TTITLE8=Roy Orbison - Blue Bayou
TTITLE9=Roy Orbison - Dream Baby (How Long Must I Dream)
TTITLE10=Roy Orbison - Walk On
TTITLE11=Roy Orbison - Falling
TTITLE12=Roy Orbison - Running Scared
TTITLE13=Roy Orbison - California Blue
TTITLE14=Roy Orbison - Leah
TTITLE15=Roy Orbison - Mean Woman Blues
TTITLE16=Roy Orbison - Crawling Back
TTITLE17=Roy Orbison - Ride Away
TTITLE18=Roy Orbison - Too Soon To Know
TTITLE19=Roy Orbison - She's A Mystery To Me
TTITLE20=Roy Orbison - Blue Angel
TTITLE21=Roy Orbison - It's Over
TTITLE22=Roy Orbison - Ooby Dooby
TTITLE23=Roy Orbison - Heartbreak Radio
TTITLE24=Traveling Wilburys - Not Alone Anymore
TTITLE25=Traveling Wilburys - Handle With Care
EXTD=
EXTT0=
EXTT1=
EXTT2=
EXTT3=
EXTT4=
EXTT5=
EXTT6=
EXTT7=
EXTT8=
EXTT9=
EXTT10=
EXTT11=
EXTT12=
EXTT13=
EXTT14=
EXTT15=
EXTT16=
EXTT17=
EXTT18=
EXTT19=
EXTT20=
EXTT21=
EXTT22=
EXTT23=
EXTT24=
EXTT25=
PLAYORDER=
